<svg xmlns="http://www.w3.org/2000/svg" xmlns:xlink="http://www.w3.org/1999/xlink" width="600" zoomAndPan="magnify" viewBox="0 0 450 112.499997" height="150" preserveAspectRatio="xMidYMid meet" version="1.0"><defs><g/><clipPath id="249e385527"><path d="M 181 7.21875 L 220.5 7.21875 L 220.5 45.300781 L 181 45.300781 Z M 181 7.21875 " clip-rule="nonzero"/></clipPath></defs><g fill="#000000" fill-opacity="1"><g transform="translate(13.215742, 82.519674)"><g><path d="M 33.25 -9.703125 L 59.828125 -46.46875 L 72.84375 -46.46875 L 72.5 -45.234375 C 70.382812 -45.234375 68.773438 -44.957031 67.671875 -44.40625 C 66.566406 -43.851562 65.703125 -42.976562 65.078125 -41.78125 C 64.460938 -40.59375 63.789062 -38.710938 63.0625 -36.140625 L 56.03125 -11.640625 L 55.5625 -10.046875 C 55.144531 -8.671875 54.84375 -7.59375 54.65625 -6.8125 C 54.476562 -6.03125 54.390625 -5.363281 54.390625 -4.8125 C 54.390625 -3.34375 54.90625 -2.378906 55.9375 -1.921875 C 56.96875 -1.460938 58.398438 -1.234375 60.234375 -1.234375 L 59.828125 0 L 38.078125 0 L 38.484375 -1.234375 C 40.773438 -1.234375 42.484375 -1.425781 43.609375 -1.8125 C 44.734375 -2.207031 45.648438 -2.988281 46.359375 -4.15625 C 47.078125 -5.332031 47.828125 -7.273438 48.609375 -9.984375 L 56.734375 -38.203125 L 56.59375 -38.34375 L 29.125 0 L 27.75 0 L 23.40625 -38.34375 L 23.265625 -38.34375 L 14.734375 -9.703125 C 14.410156 -8.691406 14.132812 -7.738281 13.90625 -6.84375 C 13.675781 -5.945312 13.5625 -5.179688 13.5625 -4.546875 C 13.5625 -3.347656 14.03125 -2.492188 14.96875 -1.984375 C 15.914062 -1.484375 17.28125 -1.234375 19.0625 -1.234375 L 18.65625 0 L 2.6875 0 L 3.09375 -1.234375 C 5.164062 -1.234375 6.738281 -1.5 7.8125 -2.03125 C 8.894531 -2.5625 9.734375 -3.390625 10.328125 -4.515625 C 10.921875 -5.640625 11.5625 -7.367188 12.25 -9.703125 L 22.171875 -42.609375 C 21.484375 -43.671875 20.585938 -44.375 19.484375 -44.71875 C 18.378906 -45.0625 17.117188 -45.234375 15.703125 -45.234375 L 16.046875 -46.46875 L 29.125 -46.46875 Z M 33.25 -9.703125 "/></g></g></g><g fill="#000000" fill-opacity="1"><g transform="translate(81.371829, 82.519674)"><g><path d="M 22.171875 -31.46875 C 23.816406 -31.46875 25.375 -31.03125 26.84375 -30.15625 C 28.3125 -29.28125 29.492188 -28.050781 30.390625 -26.46875 C 31.285156 -24.882812 31.734375 -23.082031 31.734375 -21.0625 C 31.734375 -17.03125 30.703125 -13.335938 28.640625 -9.984375 C 26.578125 -6.628906 23.992188 -3.988281 20.890625 -2.0625 C 17.796875 -0.132812 14.847656 0.828125 12.046875 0.828125 C 9.796875 0.828125 7.957031 0.242188 6.53125 -0.921875 C 5.113281 -2.097656 4.082031 -3.507812 3.4375 -5.15625 C 2.800781 -6.8125 2.484375 -8.375 2.484375 -9.84375 C 2.484375 -12.96875 3.445312 -16.226562 5.375 -19.625 C 7.300781 -23.019531 9.789062 -25.84375 12.84375 -28.09375 C 15.894531 -30.34375 19.003906 -31.46875 22.171875 -31.46875 Z M 8.125 -7.234375 C 8.125 -5.390625 8.601562 -3.867188 9.5625 -2.671875 C 10.53125 -1.484375 11.769531 -0.890625 13.28125 -0.890625 C 14.707031 -0.890625 16.050781 -1.3125 17.3125 -2.15625 C 18.570312 -3.007812 19.640625 -4.171875 20.515625 -5.640625 C 22.210938 -8.398438 23.597656 -11.460938 24.671875 -14.828125 C 25.753906 -18.203125 26.296875 -21.015625 26.296875 -23.265625 C 26.296875 -27.765625 24.597656 -30.015625 21.203125 -30.015625 C 18.773438 -30.015625 16.5625 -28.671875 14.5625 -25.984375 C 12.5625 -23.304688 10.988281 -20.140625 9.84375 -16.484375 C 8.695312 -12.835938 8.125 -9.753906 8.125 -7.234375 Z M 8.125 -7.234375 "/></g></g><g transform="translate(115.794094, 82.519674)"><g><path d="M 9.5625 -7.703125 C 9.25 -6.609375 9.007812 -5.726562 8.84375 -5.0625 C 8.6875 -4.394531 8.609375 -3.832031 8.609375 -3.375 C 8.609375 -3.050781 8.6875 -2.804688 8.84375 -2.640625 C 9.007812 -2.484375 9.160156 -2.40625 9.296875 -2.40625 C 9.847656 -2.40625 10.785156 -3.070312 12.109375 -4.40625 C 13.441406 -5.738281 14.269531 -6.679688 14.59375 -7.234375 L 15.703125 -6.609375 C 14.234375 -4.585938 12.625 -2.84375 10.875 -1.375 C 9.132812 0.09375 7.503906 0.828125 5.984375 0.828125 C 4.148438 0.828125 3.234375 -0.25 3.234375 -2.40625 C 3.234375 -3.28125 3.414062 -4.359375 3.78125 -5.640625 C 4.15625 -6.929688 4.410156 -7.78125 4.546875 -8.1875 L 14.3125 -42.203125 C 14.59375 -43.253906 14.734375 -44.078125 14.734375 -44.671875 C 14.734375 -45.273438 14.523438 -45.757812 14.109375 -46.125 C 13.703125 -46.488281 13.175781 -46.671875 12.53125 -46.671875 C 11.65625 -46.671875 10.875 -46.601562 10.1875 -46.46875 L 10.1875 -47.78125 L 20.3125 -49.359375 L 21.484375 -49.359375 L 10.46875 -10.8125 C 10.007812 -9.15625 9.707031 -8.117188 9.5625 -7.703125 Z M 9.5625 -7.703125 "/></g></g><g transform="translate(134.450961, 82.519674)"><g><path d="M 9.5625 -7.703125 C 9.25 -6.609375 9.007812 -5.726562 8.84375 -5.0625 C 8.6875 -4.394531 8.609375 -3.832031 8.609375 -3.375 C 8.609375 -3.050781 8.6875 -2.804688 8.84375 -2.640625 C 9.007812 -2.484375 9.160156 -2.40625 9.296875 -2.40625 C 9.847656 -2.40625 10.785156 -3.070312 12.109375 -4.40625 C 13.441406 -5.738281 14.269531 -6.679688 14.59375 -7.234375 L 15.703125 -6.609375 C 14.234375 -4.585938 12.625 -2.84375 10.875 -1.375 C 9.132812 0.09375 7.503906 0.828125 5.984375 0.828125 C 4.148438 0.828125 3.234375 -0.25 3.234375 -2.40625 C 3.234375 -3.28125 3.414062 -4.359375 3.78125 -5.640625 C 4.15625 -6.929688 4.410156 -7.78125 4.546875 -8.1875 L 14.3125 -42.203125 C 14.59375 -43.253906 14.734375 -44.078125 14.734375 -44.671875 C 14.734375 -45.273438 14.523438 -45.757812 14.109375 -46.125 C 13.703125 -46.488281 13.175781 -46.671875 12.53125 -46.671875 C 11.65625 -46.671875 10.875 -46.601562 10.1875 -46.46875 L 10.1875 -47.78125 L 20.3125 -49.359375 L 21.484375 -49.359375 L 10.46875 -10.8125 C 10.007812 -9.15625 9.707031 -8.117188 9.5625 -7.703125 Z M 9.5625 -7.703125 "/></g></g><g transform="translate(153.107829, 82.519674)"><g><path d="M 16.65625 -23.46875 L 17.6875 -3.4375 C 20.90625 -7.382812 23.820312 -11.34375 26.4375 -15.3125 C 29.050781 -19.28125 30.359375 -22.1875 30.359375 -24.03125 C 30.359375 -24.300781 30.253906 -24.515625 30.046875 -24.671875 C 29.835938 -24.835938 29.503906 -25.035156 29.046875 -25.265625 C 28.265625 -25.585938 27.644531 -25.976562 27.1875 -26.4375 C 26.726562 -26.894531 26.5 -27.601562 26.5 -28.5625 C 26.5 -29.394531 26.785156 -30.085938 27.359375 -30.640625 C 27.929688 -31.191406 28.585938 -31.46875 29.328125 -31.46875 C 30.148438 -31.46875 30.960938 -31.117188 31.765625 -30.421875 C 32.566406 -29.734375 32.96875 -28.425781 32.96875 -26.5 C 32.96875 -24.757812 32.441406 -22.878906 31.390625 -20.859375 C 30.335938 -18.835938 28.664062 -16.109375 26.375 -12.671875 C 23.84375 -8.898438 20.695312 -4.664062 16.9375 0.03125 C 13.175781 4.738281 10.144531 8.285156 7.84375 10.671875 C 5.1875 13.378906 2.78125 14.734375 0.625 14.734375 C -0.113281 14.734375 -0.769531 14.46875 -1.34375 13.9375 C -1.914062 13.414062 -2.203125 12.804688 -2.203125 12.109375 C -2.203125 11.242188 -1.832031 10.429688 -1.09375 9.671875 C -0.363281 8.910156 0.457031 8.53125 1.375 8.53125 C 1.789062 8.53125 2.085938 8.644531 2.265625 8.875 C 2.453125 9.101562 2.679688 9.445312 2.953125 9.90625 C 3.273438 10.644531 3.625 11.015625 4 11.015625 C 4.40625 11.015625 5.316406 10.441406 6.734375 9.296875 C 8.160156 8.148438 10.253906 5.851562 13.015625 2.40625 L 11.90625 -19.203125 C 11.769531 -21.503906 11.609375 -23.257812 11.421875 -24.46875 C 11.242188 -25.6875 10.84375 -26.660156 10.21875 -27.390625 C 9.601562 -28.128906 8.648438 -28.5 7.359375 -28.5 C 6.492188 -28.5 5.691406 -28.40625 4.953125 -28.21875 L 4.609375 -29.46875 L 14.796875 -31.46875 C 15.484375 -30.40625 15.941406 -29.253906 16.171875 -28.015625 C 16.398438 -26.773438 16.5625 -25.257812 16.65625 -23.46875 Z M 16.65625 -23.46875 "/></g></g></g><g fill="#000000" fill-opacity="1"><g transform="translate(187.530108, 82.519674)"><g/></g><g transform="translate(204.74124, 82.519674)"><g><path d="M 33.328125 -45.234375 C 31.535156 -45.234375 30.117188 -44.898438 29.078125 -44.234375 C 28.046875 -43.566406 27.273438 -42.691406 26.765625 -41.609375 C 26.265625 -40.535156 25.71875 -38.96875 25.125 -36.90625 L 21.890625 -25.671875 L 42.265625 -25.671875 L 45.5 -36.90625 C 45.914062 -38.28125 46.191406 -39.3125 46.328125 -40 C 46.460938 -40.6875 46.53125 -41.257812 46.53125 -41.71875 C 46.53125 -43.050781 46.082031 -43.96875 45.1875 -44.46875 C 44.300781 -44.976562 42.894531 -45.234375 40.96875 -45.234375 L 41.375 -46.46875 L 61.34375 -46.46875 L 60.921875 -45.234375 C 59.085938 -45.234375 57.640625 -44.929688 56.578125 -44.328125 C 55.523438 -43.734375 54.734375 -42.875 54.203125 -41.75 C 53.679688 -40.625 53.097656 -38.984375 52.453125 -36.828125 L 44.609375 -9.640625 C 43.921875 -7.160156 43.578125 -5.550781 43.578125 -4.8125 C 43.578125 -3.4375 44.023438 -2.492188 44.921875 -1.984375 C 45.816406 -1.484375 47.132812 -1.234375 48.875 -1.234375 L 48.53125 0 L 28.984375 0 L 29.328125 -1.234375 C 31.066406 -1.234375 32.441406 -1.519531 33.453125 -2.09375 C 34.460938 -2.664062 35.253906 -3.492188 35.828125 -4.578125 C 36.398438 -5.660156 36.960938 -7.1875 37.515625 -9.15625 L 41.578125 -23.34375 L 21.203125 -23.34375 L 18.25 -13.015625 C 17.46875 -10.347656 16.925781 -8.425781 16.625 -7.25 C 16.320312 -6.082031 16.171875 -5.25 16.171875 -4.75 C 16.171875 -3.550781 16.582031 -2.664062 17.40625 -2.09375 C 18.238281 -1.519531 19.503906 -1.234375 21.203125 -1.234375 L 20.859375 0 L 1.578125 0 L 1.578125 -1.234375 C 3.648438 -1.234375 5.234375 -1.578125 6.328125 -2.265625 C 7.429688 -2.953125 8.242188 -3.914062 8.765625 -5.15625 C 9.296875 -6.394531 9.976562 -8.460938 10.8125 -11.359375 L 18.171875 -36.90625 C 18.859375 -39.238281 19.203125 -40.84375 19.203125 -41.71875 C 19.203125 -43.144531 18.707031 -44.085938 17.71875 -44.546875 C 16.738281 -45.003906 15.351562 -45.234375 13.5625 -45.234375 L 13.96875 -46.46875 L 33.734375 -46.46875 Z M 33.328125 -45.234375 "/></g></g></g><g fill="#000000" fill-opacity="1"><g transform="translate(261.400294, 82.519674)"><g><path d="M 21.40625 -31.46875 C 22.644531 -31.46875 23.769531 -31.039062 24.78125 -30.1875 C 25.789062 -29.34375 26.410156 -28.160156 26.640625 -26.640625 L 26.78125 -26.640625 L 27.875 -30.703125 L 33.328125 -31.46875 L 26.234375 -6.609375 C 26.179688 -6.515625 26.0625 -6.171875 25.875 -5.578125 C 25.695312 -4.984375 25.609375 -4.382812 25.609375 -3.78125 C 25.609375 -3.414062 25.695312 -3.128906 25.875 -2.921875 C 26.0625 -2.710938 26.269531 -2.609375 26.5 -2.609375 C 27.101562 -2.609375 27.863281 -3.019531 28.78125 -3.84375 C 29.695312 -4.675781 30.566406 -5.828125 31.390625 -7.296875 L 32.421875 -6.609375 C 31.179688 -4.316406 29.609375 -2.503906 27.703125 -1.171875 C 25.804688 0.160156 24.125 0.828125 22.65625 0.828125 C 21.820312 0.828125 21.195312 0.53125 20.78125 -0.0625 C 20.375 -0.664062 20.171875 -1.398438 20.171875 -2.265625 C 20.171875 -2.867188 20.296875 -3.847656 20.546875 -5.203125 C 20.796875 -6.554688 21.195312 -7.921875 21.75 -9.296875 L 21.609375 -9.4375 C 16.472656 -2.59375 11.816406 0.828125 7.640625 0.828125 C 5.804688 0.828125 4.347656 0.0351562 3.265625 -1.546875 C 2.191406 -3.128906 1.65625 -4.953125 1.65625 -7.015625 C 1.65625 -10.597656 2.695312 -14.304688 4.78125 -18.140625 C 6.875 -21.972656 9.46875 -25.148438 12.5625 -27.671875 C 15.664062 -30.203125 18.613281 -31.46875 21.40625 -31.46875 Z M 7.15625 -8.328125 C 7.15625 -6.535156 7.566406 -5.226562 8.390625 -4.40625 C 9.222656 -3.582031 10.191406 -3.171875 11.296875 -3.171875 C 12.710938 -3.171875 14.242188 -3.8125 15.890625 -5.09375 C 17.546875 -6.375 19.070312 -8.015625 20.46875 -10.015625 C 21.875 -12.015625 22.921875 -14.046875 23.609375 -16.109375 C 24.296875 -18.128906 24.800781 -19.789062 25.125 -21.09375 C 25.445312 -22.40625 25.609375 -23.679688 25.609375 -24.921875 C 25.609375 -26.710938 25.191406 -28.03125 24.359375 -28.875 C 23.535156 -29.726562 22.578125 -30.15625 21.484375 -30.15625 C 19.328125 -30.15625 17.132812 -28.832031 14.90625 -26.1875 C 12.675781 -23.550781 10.828125 -20.46875 9.359375 -16.9375 C 7.890625 -13.40625 7.15625 -10.535156 7.15625 -8.328125 Z M 7.15625 -8.328125 "/></g></g><g transform="translate(295.822558, 82.519674)"><g><path d="M 14.59375 -31.46875 L 10.390625 -13.625 C 11.222656 -15.644531 12.40625 -18.054688 13.9375 -20.859375 C 15.476562 -23.660156 17.117188 -26.128906 18.859375 -28.265625 C 20.609375 -30.398438 22.191406 -31.46875 23.609375 -31.46875 C 24.210938 -31.46875 24.742188 -31.257812 25.203125 -30.84375 C 25.660156 -30.425781 25.890625 -29.804688 25.890625 -28.984375 C 25.890625 -27.703125 25.625 -26.394531 25.09375 -25.0625 C 24.5625 -23.726562 23.675781 -23.0625 22.4375 -23.0625 C 21.800781 -23.0625 21.367188 -23.222656 21.140625 -23.546875 C 20.910156 -23.867188 20.722656 -24.347656 20.578125 -24.984375 C 20.492188 -25.441406 20.394531 -25.773438 20.28125 -25.984375 C 20.164062 -26.191406 19.945312 -26.296875 19.625 -26.296875 C 18.84375 -26.296875 17.738281 -25.054688 16.3125 -22.578125 C 14.894531 -20.097656 13.492188 -17.25 12.109375 -14.03125 C 10.734375 -10.820312 9.816406 -8.414062 9.359375 -6.8125 L 7.4375 0 L 2.34375 0 L 7.78125 -22.234375 C 7.820312 -22.367188 7.957031 -22.929688 8.1875 -23.921875 C 8.414062 -24.910156 8.53125 -25.796875 8.53125 -26.578125 C 8.53125 -27.304688 8.320312 -27.785156 7.90625 -28.015625 C 7.5 -28.242188 6.953125 -28.359375 6.265625 -28.359375 C 5.753906 -28.359375 5.304688 -28.332031 4.921875 -28.28125 C 4.535156 -28.238281 4.226562 -28.195312 4 -28.15625 L 4.34375 -29.46875 L 13.421875 -31.46875 Z M 14.59375 -31.46875 "/></g></g></g><g fill="#000000" fill-opacity="1"><g transform="translate(322.327708, 82.519674)"><g><path d="M 18.71875 -39.109375 L 20.03125 -39.109375 L 17.625 -30.703125 L 22.4375 -30.703125 L 21.890625 -28.5625 L 17 -28.5625 L 10.875 -7.15625 C 10.320312 -5.320312 10.046875 -4.082031 10.046875 -3.4375 C 10.046875 -2.613281 10.390625 -2.203125 11.078125 -2.203125 C 11.679688 -2.203125 12.414062 -2.535156 13.28125 -3.203125 C 14.15625 -3.867188 14.96875 -4.613281 15.71875 -5.4375 C 16.476562 -6.257812 16.882812 -6.765625 16.9375 -6.953125 L 18.25 -6.953125 C 16.457031 -4.109375 14.664062 -2.097656 12.875 -0.921875 C 11.082031 0.242188 9.453125 0.828125 7.984375 0.828125 C 7.203125 0.828125 6.488281 0.53125 5.84375 -0.0625 C 5.207031 -0.664062 4.890625 -1.585938 4.890625 -2.828125 C 4.890625 -3.648438 5.164062 -5.09375 5.71875 -7.15625 L 11.84375 -28.5625 L 6.671875 -28.5625 L 7.15625 -30.078125 C 9.863281 -30.535156 12.078125 -31.578125 13.796875 -33.203125 C 15.523438 -34.835938 17.164062 -36.804688 18.71875 -39.109375 Z M 18.71875 -39.109375 "/></g></g></g><g fill="#000000" fill-opacity="1"><g transform="translate(345.252949, 82.519674)"><g><path d="M 9.5625 -7.703125 C 9.25 -6.609375 9.007812 -5.726562 8.84375 -5.0625 C 8.6875 -4.394531 8.609375 -3.832031 8.609375 -3.375 C 8.609375 -3.050781 8.6875 -2.804688 8.84375 -2.640625 C 9.007812 -2.484375 9.160156 -2.40625 9.296875 -2.40625 C 9.847656 -2.40625 10.785156 -3.070312 12.109375 -4.40625 C 13.441406 -5.738281 14.269531 -6.679688 14.59375 -7.234375 L 15.703125 -6.609375 C 14.234375 -4.585938 12.625 -2.84375 10.875 -1.375 C 9.132812 0.09375 7.503906 0.828125 5.984375 0.828125 C 4.148438 0.828125 3.234375 -0.25 3.234375 -2.40625 C 3.234375 -3.28125 3.414062 -4.359375 3.78125 -5.640625 C 4.15625 -6.929688 4.410156 -7.78125 4.546875 -8.1875 L 14.3125 -42.203125 C 14.59375 -43.253906 14.734375 -44.078125 14.734375 -44.671875 C 14.734375 -45.273438 14.523438 -45.757812 14.109375 -46.125 C 13.703125 -46.488281 13.175781 -46.671875 12.53125 -46.671875 C 11.65625 -46.671875 10.875 -46.601562 10.1875 -46.46875 L 10.1875 -47.78125 L 20.3125 -49.359375 L 21.484375 -49.359375 L 10.46875 -10.8125 C 10.007812 -9.15625 9.707031 -8.117188 9.5625 -7.703125 Z M 9.5625 -7.703125 "/></g></g></g><g fill="#000000" fill-opacity="1"><g transform="translate(363.909828, 82.519674)"><g><path d="M 22.3125 -31.46875 C 24.238281 -31.46875 25.851562 -30.984375 27.15625 -30.015625 C 28.46875 -29.046875 29.125 -27.804688 29.125 -26.296875 C 29.125 -24.828125 28.429688 -23.148438 27.046875 -21.265625 C 25.671875 -19.390625 23.4375 -17.726562 20.34375 -16.28125 C 17.25 -14.832031 13.3125 -14.039062 8.53125 -13.90625 C 8.257812 -12.988281 8.125 -11.863281 8.125 -10.53125 C 8.125 -7.726562 8.878906 -5.695312 10.390625 -4.4375 C 11.910156 -3.175781 13.585938 -2.546875 15.421875 -2.546875 C 18.492188 -2.546875 21.613281 -4.082031 24.78125 -7.15625 L 25.671875 -6.328125 C 20.765625 -1.554688 16.015625 0.828125 11.421875 0.828125 C 9.546875 0.828125 7.90625 0.359375 6.5 -0.578125 C 5.101562 -1.523438 4.046875 -2.753906 3.328125 -4.265625 C 2.617188 -5.785156 2.265625 -7.347656 2.265625 -8.953125 C 2.265625 -12.160156 3.191406 -15.53125 5.046875 -19.0625 C 6.910156 -22.601562 9.390625 -25.554688 12.484375 -27.921875 C 15.585938 -30.285156 18.863281 -31.46875 22.3125 -31.46875 Z M 8.953125 -15.21875 C 12.066406 -15.445312 14.585938 -15.972656 16.515625 -16.796875 C 18.398438 -17.617188 19.925781 -18.6875 21.09375 -20 C 22.269531 -21.3125 23.109375 -22.597656 23.609375 -23.859375 C 24.117188 -25.117188 24.375 -26.160156 24.375 -26.984375 C 24.375 -27.765625 24.085938 -28.488281 23.515625 -29.15625 C 22.941406 -29.820312 22.125 -30.15625 21.0625 -30.15625 C 19.226562 -30.15625 17.453125 -29.304688 15.734375 -27.609375 C 14.015625 -25.910156 12.546875 -23.890625 11.328125 -21.546875 C 10.109375 -19.203125 9.316406 -17.09375 8.953125 -15.21875 Z M 8.953125 -15.21875 "/></g></g><g transform="translate(394.063732, 82.519674)"><g><path d="M 16.65625 -23.46875 L 17.6875 -3.4375 C 20.90625 -7.382812 23.820312 -11.34375 26.4375 -15.3125 C 29.050781 -19.28125 30.359375 -22.1875 30.359375 -24.03125 C 30.359375 -24.300781 30.253906 -24.515625 30.046875 -24.671875 C 29.835938 -24.835938 29.503906 -25.035156 29.046875 -25.265625 C 28.265625 -25.585938 27.644531 -25.976562 27.1875 -26.4375 C 26.726562 -26.894531 26.5 -27.601562 26.5 -28.5625 C 26.5 -29.394531 26.785156 -30.085938 27.359375 -30.640625 C 27.929688 -31.191406 28.585938 -31.46875 29.328125 -31.46875 C 30.148438 -31.46875 30.960938 -31.117188 31.765625 -30.421875 C 32.566406 -29.734375 32.96875 -28.425781 32.96875 -26.5 C 32.96875 -24.757812 32.441406 -22.878906 31.390625 -20.859375 C 30.335938 -18.835938 28.664062 -16.109375 26.375 -12.671875 C 23.84375 -8.898438 20.695312 -4.664062 16.9375 0.03125 C 13.175781 4.738281 10.144531 8.285156 7.84375 10.671875 C 5.1875 13.378906 2.78125 14.734375 0.625 14.734375 C -0.113281 14.734375 -0.769531 14.46875 -1.34375 13.9375 C -1.914062 13.414062 -2.203125 12.804688 -2.203125 12.109375 C -2.203125 11.242188 -1.832031 10.429688 -1.09375 9.671875 C -0.363281 8.910156 0.457031 8.53125 1.375 8.53125 C 1.789062 8.53125 2.085938 8.644531 2.265625 8.875 C 2.453125 9.101562 2.679688 9.445312 2.953125 9.90625 C 3.273438 10.644531 3.625 11.015625 4 11.015625 C 4.40625 11.015625 5.316406 10.441406 6.734375 9.296875 C 8.160156 8.148438 10.253906 5.851562 13.015625 2.40625 L 11.90625 -19.203125 C 11.769531 -21.503906 11.609375 -23.257812 11.421875 -24.46875 C 11.242188 -25.6875 10.84375 -26.660156 10.21875 -27.390625 C 9.601562 -28.128906 8.648438 -28.5 7.359375 -28.5 C 6.492188 -28.5 5.691406 -28.40625 4.953125 -28.21875 L 4.609375 -29.46875 L 14.796875 -31.46875 C 15.484375 -30.40625 15.941406 -29.253906 16.171875 -28.015625 C 16.398438 -26.773438 16.5625 -25.257812 16.65625 -23.46875 Z M 16.65625 -23.46875 "/></g></g></g><g clip-path="url(#249e385527)"><path fill="#000000" d="M 208.488281 17.125 C 208.300781 17.1875 208.113281 17.253906 207.925781 17.316406 C 210.964844 16.421875 213.941406 15.328125 216.867188 14.121094 C 214.070312 15.113281 211.300781 16.179688 208.488281 17.125 Z M 203.375 17.515625 C 203.429688 17.613281 203.480469 17.710938 203.535156 17.808594 C 203.597656 17.789062 203.664062 17.769531 203.726562 17.75 C 203.480469 17.324219 203.238281 16.898438 202.996094 16.472656 C 202.589844 15.761719 202.191406 15.042969 201.792969 14.328125 C 202.292969 15.40625 202.800781 16.476562 203.375 17.515625 Z M 202.203125 17.761719 C 202.269531 17.898438 202.339844 18.03125 202.414062 18.171875 C 202.585938 18.113281 202.761719 18.058594 202.933594 18.003906 C 201.789062 16.09375 200.679688 14.160156 199.742188 12.136719 C 200.40625 14.074219 201.269531 15.9375 202.203125 17.761719 Z M 204.777344 18.726562 C 208.5625 17.777344 212.324219 16.746094 216.035156 15.539062 C 216.273438 15.238281 216.53125 14.953125 216.753906 14.640625 C 212.816406 16.179688 208.8125 17.542969 204.734375 18.652344 C 204.75 18.679688 204.765625 18.703125 204.777344 18.726562 Z M 204.125 18.890625 C 204.199219 18.871094 204.269531 18.851562 204.34375 18.835938 C 204.328125 18.816406 204.316406 18.792969 204.304688 18.769531 C 204.234375 18.789062 204.160156 18.808594 204.089844 18.828125 C 204.101562 18.847656 204.113281 18.867188 204.125 18.890625 Z M 202.9375 19.183594 C 203.140625 19.132812 203.34375 19.082031 203.546875 19.03125 C 203.535156 19.015625 203.527344 18.996094 203.515625 18.980469 C 203.316406 19.03125 203.113281 19.085938 202.914062 19.140625 C 202.921875 19.152344 202.929688 19.167969 202.9375 19.183594 Z M 198.421875 11.429688 C 198.148438 14.179688 197.738281 16.917969 197.355469 19.652344 C 198.949219 19.25 200.519531 18.773438 202.085938 18.273438 C 201.074219 16.296875 200.121094 14.28125 199.410156 12.175781 C 199.214844 11.601562 199.003906 11.058594 198.914062 10.460938 C 198.902344 10.40625 198.914062 10.347656 198.890625 10.300781 C 198.804688 10.128906 198.726562 9.96875 198.636719 9.808594 C 198.511719 10.347656 198.453125 10.882812 198.421875 11.429688 Z M 196.726562 19.816406 C 196.769531 19.808594 196.804688 19.800781 196.84375 19.789062 C 196.871094 19.78125 196.894531 19.777344 196.921875 19.765625 C 197.011719 19.085938 197.105469 18.398438 197.191406 17.71875 C 197.265625 17.1875 197.332031 16.65625 197.402344 16.125 C 197.175781 17.359375 196.910156 18.582031 196.726562 19.816406 Z M 200.113281 19.878906 C 200.9375 19.675781 201.769531 19.472656 202.597656 19.269531 C 202.589844 19.253906 202.582031 19.242188 202.574219 19.230469 C 201.761719 19.472656 200.914062 19.601562 200.113281 19.878906 Z M 193.953125 21.136719 C 191.609375 21.578125 189.265625 22.011719 186.914062 22.414062 C 188.714844 22.359375 190.507812 22.164062 192.28125 21.839844 C 193.46875 21.5625 194.621094 21.171875 195.78125 20.804688 C 195.785156 20.796875 195.785156 20.785156 195.789062 20.777344 C 195.160156 20.910156 194.574219 21.019531 193.953125 21.136719 Z M 184.269531 24.226562 C 183.949219 24.066406 183.636719 23.886719 183.332031 23.703125 C 183.128906 23.574219 182.914062 23.421875 182.832031 23.1875 C 182.640625 23.25 182.449219 23.300781 182.304688 23.433594 C 182.355469 23.550781 182.488281 23.578125 182.582031 23.636719 C 183.125 23.882812 183.703125 24.039062 184.269531 24.226562 Z M 205.140625 19.347656 C 205.964844 20.769531 206.765625 22.203125 207.574219 23.632812 C 207.71875 23.882812 207.863281 24.136719 208.007812 24.386719 C 210.402344 21.855469 212.785156 19.308594 215.070312 16.679688 C 211.738281 17.523438 208.402344 18.367188 205.082031 19.242188 C 205.097656 19.277344 205.121094 19.316406 205.140625 19.347656 Z M 204.527344 19.621094 C 205.515625 21.382812 206.515625 23.136719 207.558594 24.863281 C 207.589844 24.828125 207.625 24.789062 207.664062 24.753906 C 207.402344 24.289062 207.140625 23.820312 206.886719 23.355469 C 206.144531 22.019531 205.398438 20.683594 204.644531 19.359375 C 204.570312 19.378906 204.492188 19.398438 204.417969 19.417969 C 204.453125 19.488281 204.492188 19.554688 204.527344 19.621094 Z M 204 21.144531 C 204.882812 22.707031 205.757812 24.269531 206.679688 25.804688 C 206.714844 25.765625 206.75 25.730469 206.78125 25.695312 C 206.863281 25.605469 206.949219 25.511719 207.035156 25.421875 C 206.023438 23.445312 205.019531 21.460938 203.859375 19.566406 C 203.652344 19.621094 203.441406 19.675781 203.234375 19.734375 C 203.488281 20.207031 203.742188 20.679688 204 21.144531 Z M 188.160156 25.425781 C 189.234375 25.757812 190.316406 26.089844 191.390625 26.425781 C 189.589844 25.636719 187.777344 24.875 185.957031 24.132812 C 185.039062 23.796875 184.15625 23.304688 183.195312 23.171875 C 184.015625 23.820312 185.023438 24.164062 185.964844 24.589844 C 186.683594 24.902344 187.402344 25.21875 188.160156 25.425781 Z M 194.707031 27.5 C 194.96875 25.558594 195.289062 23.625 195.625 21.691406 C 194.179688 22.023438 192.703125 22.25 191.300781 22.742188 C 190.351562 23.011719 189.425781 23.375 188.453125 23.542969 C 188.320312 23.566406 188.1875 23.472656 188.152344 23.347656 C 188.082031 23.078125 188.378906 22.984375 188.566406 22.902344 C 187.738281 22.945312 186.910156 23.019531 186.082031 23.003906 C 185.53125 22.976562 184.945312 23.027344 184.433594 22.796875 C 184.351562 22.8125 184.265625 22.832031 184.191406 22.847656 C 184.03125 22.882812 183.871094 22.921875 183.707031 22.953125 C 186.101562 23.824219 188.421875 24.878906 190.765625 25.878906 C 192.074219 26.4375 193.339844 27.097656 194.707031 27.5 Z M 195.804688 27.875 C 196.015625 26.378906 196.226562 24.886719 196.433594 23.386719 C 196.519531 22.738281 196.609375 22.085938 196.695312 21.4375 C 196.640625 21.449219 196.585938 21.460938 196.53125 21.480469 C 196.484375 21.882812 196.433594 22.289062 196.386719 22.691406 C 196.183594 24.417969 195.980469 26.140625 195.777344 27.867188 C 195.785156 27.867188 195.792969 27.871094 195.804688 27.875 Z M 194.199219 27.9375 C 194.339844 28 194.484375 28.058594 194.625 28.117188 C 194.628906 28.078125 194.636719 28.039062 194.640625 28 C 194.644531 27.976562 194.644531 27.957031 194.648438 27.9375 C 193.382812 27.246094 191.984375 26.894531 190.617188 26.46875 C 191.8125 26.945312 193.011719 27.433594 194.199219 27.9375 Z M 195.757812 28.191406 C 195.761719 28.179688 195.765625 28.164062 195.765625 28.148438 C 195.757812 28.144531 195.75 28.144531 195.742188 28.140625 C 195.742188 28.15625 195.742188 28.167969 195.738281 28.179688 C 195.746094 28.1875 195.75 28.1875 195.757812 28.191406 Z M 195.703125 28.578125 C 195.710938 28.539062 195.714844 28.5 195.71875 28.457031 C 195.714844 28.457031 195.710938 28.453125 195.707031 28.453125 C 195.703125 28.492188 195.695312 28.535156 195.695312 28.574219 C 195.695312 28.574219 195.699219 28.574219 195.703125 28.578125 Z M 192.855469 28.488281 C 193.398438 28.707031 193.9375 28.925781 194.484375 29.144531 C 194.496094 29.054688 194.507812 28.960938 194.519531 28.867188 C 194.234375 28.792969 193.953125 28.71875 193.671875 28.636719 C 193.199219 28.507812 192.730469 28.375 192.261719 28.246094 C 192.460938 28.328125 192.65625 28.410156 192.855469 28.488281 Z M 208.664062 26.710938 C 209.171875 27.53125 209.683594 28.347656 210.191406 29.164062 C 209.960938 28.773438 209.730469 28.382812 209.5 27.992188 C 209.21875 27.507812 208.945312 27.027344 208.667969 26.542969 C 208.648438 26.566406 208.625 26.589844 208.605469 26.613281 C 208.625 26.648438 208.648438 26.679688 208.664062 26.710938 Z M 197.175781 29.179688 C 196.9375 29.0625 196.703125 28.941406 196.464844 28.820312 C 196.46875 28.824219 196.472656 28.824219 196.480469 28.828125 C 196.34375 28.761719 196.207031 28.695312 196.070312 28.628906 C 196.066406 28.664062 196.0625 28.695312 196.058594 28.730469 C 196.375 28.867188 196.695312 29.003906 197.015625 29.136719 C 197.066406 29.152344 197.121094 29.164062 197.175781 29.179688 Z M 196.421875 28.089844 C 198.433594 28.835938 200.4375 29.59375 202.394531 30.464844 C 203.714844 28.984375 205.070312 27.539062 206.417969 26.085938 C 205.203125 24.023438 204.027344 21.9375 202.898438 19.828125 C 200.972656 20.335938 199.054688 20.867188 197.113281 21.332031 C 196.847656 23.183594 196.585938 25.035156 196.320312 26.882812 C 196.269531 27.253906 196.214844 27.625 196.160156 27.996094 C 196.25 28.027344 196.335938 28.058594 196.421875 28.089844 Z M 199.597656 29.898438 C 200.109375 30.070312 200.625 30.242188 201.136719 30.417969 C 201.464844 30.53125 201.785156 30.652344 202.113281 30.773438 C 202.132812 30.75 202.15625 30.726562 202.175781 30.703125 C 200.191406 29.808594 198.164062 29.015625 196.121094 28.269531 C 196.117188 28.296875 196.113281 28.328125 196.109375 28.355469 C 197.269531 28.90625 198.351562 29.582031 199.597656 29.898438 Z M 201.761719 31.175781 C 201.773438 31.160156 201.789062 31.140625 201.804688 31.125 C 201.558594 31.03125 201.3125 30.941406 201.066406 30.847656 C 201.066406 30.847656 201.0625 30.84375 201.058594 30.84375 C 201.078125 30.851562 201.082031 30.851562 200.960938 30.8125 C 201.042969 30.851562 201.121094 30.894531 201.199219 30.933594 C 201.386719 31.011719 201.574219 31.09375 201.761719 31.175781 Z M 210.324219 31.5625 C 209.539062 30.144531 208.769531 28.71875 208.011719 27.292969 C 207.925781 27.390625 207.839844 27.484375 207.753906 27.582031 C 207.839844 27.722656 207.929688 27.859375 208.015625 28 C 208.753906 29.1875 209.519531 30.351562 210.289062 31.515625 C 210.285156 31.511719 210.285156 31.503906 210.285156 31.511719 C 210.296875 31.527344 210.308594 31.542969 210.324219 31.5625 Z M 197.695312 30.488281 C 198.503906 30.839844 199.316406 31.183594 200.125 31.542969 C 200.445312 31.683594 200.761719 31.828125 201.082031 31.972656 C 201.207031 31.824219 201.332031 31.675781 201.457031 31.53125 C 199.628906 30.785156 197.867188 29.839844 195.980469 29.261719 C 195.957031 29.421875 195.933594 29.578125 195.910156 29.742188 C 196.507812 29.988281 197.105469 30.234375 197.695312 30.488281 Z M 203.890625 32.101562 C 205.570312 32.839844 207.253906 33.582031 208.933594 34.320312 C 209.164062 34.421875 209.394531 34.523438 209.628906 34.625 C 207.761719 33.640625 205.859375 32.726562 203.902344 31.945312 C 203.878906 31.976562 203.855469 32.003906 203.828125 32.03125 C 203.816406 32.042969 203.808594 32.054688 203.800781 32.0625 C 203.832031 32.078125 203.859375 32.089844 203.890625 32.101562 Z M 207.375 34.796875 C 207.621094 34.902344 207.867188 35.011719 208.113281 35.117188 C 206.566406 34.214844 205.019531 33.316406 203.453125 32.460938 C 203.332031 32.597656 203.210938 32.738281 203.089844 32.875 C 204.515625 33.523438 205.941406 34.167969 207.375 34.796875 Z M 211.859375 35.109375 C 211.992188 35.175781 212.125 35.238281 212.257812 35.304688 C 210.679688 32.824219 209.015625 30.394531 207.492188 27.875 C 207.417969 27.960938 207.34375 28.046875 207.269531 28.128906 C 206.316406 29.207031 205.367188 30.285156 204.417969 31.363281 C 205.960938 32.082031 207.535156 32.84375 209.035156 33.625 C 209.976562 34.117188 210.894531 34.660156 211.859375 35.109375 Z M 213.632812 36.019531 C 213.210938 35.097656 212.601562 34.273438 212.078125 33.410156 C 210.988281 31.695312 209.882812 29.988281 208.835938 28.25 C 209.609375 29.644531 210.390625 31.039062 211.191406 32.421875 C 211.964844 33.640625 212.589844 35.007812 213.632812 36.019531 Z M 194.460938 40.816406 C 195.003906 40.03125 195.621094 39.296875 196.183594 38.53125 C 197.65625 36.316406 199.210938 34.171875 200.933594 32.152344 C 199.261719 31.394531 197.570312 30.683594 195.878906 29.980469 C 195.546875 32.332031 195.207031 34.679688 194.875 37.027344 C 194.6875 38.285156 194.515625 39.546875 194.460938 40.816406 Z M 193.34375 45.269531 C 192.921875 45.179688 193.058594 44.671875 193.097656 44.363281 C 193.179688 43.160156 193.347656 41.96875 193.425781 40.769531 C 193.671875 36.96875 193.980469 33.175781 194.449219 29.398438 C 192.027344 28.425781 189.601562 27.46875 187.148438 26.574219 C 186.003906 26.144531 184.875 25.671875 183.75 25.183594 C 182.835938 24.777344 181.882812 24.417969 181.078125 23.804688 C 180.925781 23.691406 181.054688 23.417969 181.238281 23.480469 C 181.5625 23.582031 181.839844 23.773438 182.140625 23.929688 C 185.933594 25.960938 190.027344 27.316406 194.175781 28.382812 C 191.636719 27.292969 189.066406 26.292969 186.515625 25.238281 C 185.105469 24.78125 183.613281 24.46875 182.261719 23.871094 C 180.984375 22.96875 183.667969 22.511719 184.234375 22.34375 C 184.527344 21.945312 185.167969 21.996094 185.609375 21.914062 C 186.121094 21.847656 186.636719 21.785156 187.148438 21.707031 C 190.058594 21.078125 193.015625 20.652344 195.925781 19.996094 C 196.246094 18.292969 196.558594 16.585938 196.769531 14.859375 C 196.84375 14.308594 196.933594 13.757812 197.023438 13.207031 C 197.078125 12.910156 197.109375 12.585938 197.320312 12.355469 C 197.46875 11.542969 197.628906 10.726562 197.761719 9.910156 C 198.027344 9.289062 198.125 8.609375 198.355469 7.964844 C 198.4375 7.765625 198.597656 7.21875 198.863281 7.277344 C 198.945312 7.296875 199 7.375 199 7.457031 C 199.019531 8.066406 198.835938 8.660156 198.742188 9.257812 C 198.984375 9.390625 199.109375 9.644531 199.242188 9.878906 C 199.402344 9.9375 199.480469 10.105469 199.558594 10.25 C 199.6875 10.484375 199.828125 10.714844 199.949219 10.953125 C 199.84375 10.730469 199.738281 10.507812 199.628906 10.285156 C 199.550781 10.144531 199.375 9.9375 199.476562 9.773438 C 199.539062 9.675781 199.683594 9.667969 199.742188 9.773438 C 201.1875 12.394531 202.597656 15.042969 204.128906 17.617188 C 207.707031 16.46875 211.269531 15.285156 214.847656 14.140625 C 215.382812 13.921875 215.914062 13.703125 216.453125 13.496094 C 216.855469 13.371094 217.28125 13.113281 217.707031 13.222656 C 218.496094 12.988281 219.265625 12.679688 220.085938 12.59375 C 220.324219 12.566406 220.5 12.847656 220.347656 13.046875 C 220.113281 13.378906 219.703125 13.488281 219.34375 13.628906 C 218.871094 13.816406 218.390625 14 217.917969 14.1875 C 217.710938 14.558594 217.453125 14.902344 217.191406 15.238281 C 217.191406 15.238281 217.195312 15.238281 217.195312 15.238281 C 217.210938 15.261719 217.222656 15.28125 217.234375 15.304688 C 217.554688 15.097656 217.933594 15.503906 217.699219 15.8125 C 217.109375 16.609375 216.464844 17.363281 215.835938 18.128906 C 213.636719 20.871094 211.316406 23.5 209.011719 26.148438 C 211.09375 29.777344 213.398438 33.273438 215.523438 36.871094 C 215.609375 37.027344 215.644531 37.226562 215.535156 37.382812 C 215.445312 37.558594 215.183594 37.566406 215.070312 37.410156 C 214.777344 37.039062 214.527344 36.644531 214.261719 36.253906 C 214.230469 36.203125 214.191406 36.148438 214.160156 36.179688 C 214.144531 36.386719 214.03125 36.695312 213.773438 36.589844 C 214.136719 37.148438 214.480469 37.71875 214.832031 38.285156 C 215.007812 38.570312 215.191406 38.851562 215.359375 39.144531 C 215.425781 39.261719 215.398438 39.417969 215.289062 39.503906 C 215.167969 39.597656 215 39.570312 214.902344 39.453125 C 214.417969 38.746094 213.988281 38.003906 213.519531 37.285156 C 213.207031 36.828125 212.988281 36.253906 212.425781 36.054688 C 212.378906 36.1875 212.21875 36.261719 212.085938 36.222656 C 211.308594 36.007812 210.585938 35.640625 209.851562 35.308594 C 208.546875 34.707031 207.242188 34.109375 205.933594 33.519531 C 207.699219 34.503906 209.425781 35.558594 211.230469 36.472656 C 211.738281 36.695312 212.25 36.90625 212.757812 37.132812 C 212.941406 37.230469 213.175781 37.257812 213.300781 37.433594 C 213.398438 37.582031 213.265625 37.753906 213.101562 37.695312 C 212.191406 37.382812 211.355469 36.894531 210.492188 36.472656 C 207.96875 35.347656 205.445312 34.207031 202.933594 33.054688 C 202.261719 33.8125 201.597656 34.574219 200.929688 35.335938 C 200.933594 35.328125 200.9375 35.324219 200.945312 35.316406 C 198.640625 37.957031 196.496094 40.734375 194.292969 43.460938 C 194.273438 43.871094 194.265625 44.277344 194.292969 44.679688 C 194.304688 44.796875 194.316406 44.917969 194.339844 45.035156 C 194.34375 45.070312 194.363281 45.113281 194.371094 45.144531 C 194.195312 44.652344 194.214844 44.105469 194.179688 43.585938 C 194.144531 43.625 194.109375 43.664062 194.074219 43.703125 C 194.035156 43.75 193.980469 43.78125 193.921875 43.796875 C 193.855469 44.234375 193.789062 44.667969 193.664062 45.085938 C 193.625 45.230469 193.476562 45.300781 193.34375 45.269531 Z M 193.34375 45.269531 " fill-opacity="1" fill-rule="nonzero"/></g></svg>